<svg width="49" height="38" viewBox="0 0 49 38" fill="none" xmlns="http://www.w3.org/2000/svg">
<path d="M48.7512 1.26184V2.5237H46.6558H44.57L44.4747 2.83495C44.4176 3.01161 42.9413 7.95807 41.1793 13.8383C39.4172 19.7101 37.96 24.5893 37.9314 24.665C37.8933 24.7659 37.9981 24.8501 38.2933 24.9678C39.7601 25.5483 40.7507 26.9111 40.7602 28.3664C40.7602 29.4684 40.3602 30.3601 39.5125 31.092C38.5696 31.9164 37.6266 32.2193 35.9694 32.2193C35.4074 32.2193 34.9407 32.2361 34.9407 32.2529C34.9407 32.2697 35.0074 32.4464 35.1026 32.6483C35.3408 33.2119 35.3122 34.5579 35.0455 35.1972C34.7693 35.887 34.3407 36.4423 33.7311 36.9218C31.169 38.9407 27.2259 37.9901 26.1211 35.0795C25.8925 34.4822 25.8925 33.1867 26.1211 32.6483C26.2068 32.4464 26.2734 32.2697 26.2734 32.2529C26.2734 32.2361 24.7305 32.2193 22.8446 32.2193C20.9493 32.2193 19.4158 32.2529 19.4158 32.295C19.4158 32.337 19.4825 32.5305 19.5587 32.7324C19.7873 33.2876 19.7587 34.4654 19.5111 35.1215C19.2539 35.8029 18.711 36.5516 18.1681 36.9638C17.5871 37.4097 16.5775 37.8219 15.7679 37.9481C13.3773 38.3014 10.9581 36.8124 10.4533 34.6841C10.3199 34.1036 10.3866 33.0773 10.5961 32.5726L10.739 32.2193H9.27225H7.79595V30.9574V29.6956H22.2732C38.0076 29.6956 37.1599 29.7208 37.5885 29.2329C38.1886 28.5683 37.96 27.6766 37.0837 27.2307C36.9409 27.155 33.1977 27.1214 22.5113 27.0877L8.12931 27.0457L7.01494 23.176C6.40538 21.0477 5.83391 19.0792 5.74819 18.7932C5.60532 18.3137 5.56722 18.2716 5.14814 18.0949C3.75757 17.4977 2.33842 16.4293 1.54789 15.3862C-0.0331726 13.2831 -0.423676 10.7173 0.471626 8.39551C1.47169 5.82133 3.95758 3.86967 7.03399 3.23875C7.94834 3.05368 9.78657 3.04526 10.7104 3.22192C13.863 3.83602 16.4061 5.83816 17.3776 8.46281L17.6347 9.16945L28.6355 9.15262L39.6363 9.12738L40.9507 4.75296C41.6745 2.34703 42.2841 0.294426 42.3222 0.185066L42.3698 -3.8147e-06H45.5605H48.7512V1.26184ZM7.32925 5.77086C4.75764 6.36814 2.84322 8.56376 2.84322 10.936C2.84322 13.9897 5.81486 16.4798 9.24367 16.2947C11.5295 16.1685 13.5106 14.9571 14.4631 13.0896C14.8155 12.4082 14.9584 11.7436 14.9488 10.8603C14.9393 9.43864 14.3774 8.26091 13.2249 7.22619C11.6153 5.78769 9.51036 5.27453 7.32925 5.77086ZM17.7014 12.2988C17.4538 13.5607 16.8633 14.7216 15.9394 15.79L15.4155 16.4041V19.3484V22.2927H13.9869H12.5582V20.2233C12.5582 18.28 12.5487 18.1538 12.3867 18.2127C11.6915 18.4735 10.6342 18.7006 9.76752 18.7848C9.20557 18.8352 8.7484 18.9109 8.7484 18.9362C8.7484 18.9698 9.11033 20.2569 9.55798 21.7964C10.0056 23.3274 10.3676 24.5977 10.3676 24.6145C10.3676 24.6818 34.9312 24.6482 34.9788 24.5809C35.0264 24.5136 38.8458 11.8193 38.8458 11.7352C38.8458 11.71 34.1121 11.6931 28.3403 11.6931H17.8252L17.7014 12.2988ZM29.607 32.5053C29.0546 32.825 28.7974 33.2624 28.7974 33.8597C28.7974 34.4569 29.0546 34.8944 29.5975 35.2056C31.2262 36.1478 33.1787 34.4654 32.1596 33.0016C31.95 32.6904 31.5405 32.4043 31.15 32.295C30.7309 32.1772 29.9975 32.2781 29.607 32.5053ZM14.3869 32.3454C13.9202 32.5221 13.6154 32.7829 13.4059 33.1867C12.8439 34.2719 13.7583 35.5001 15.1393 35.5001C15.606 35.5001 16.3489 35.0879 16.6251 34.6841C17.5014 33.3633 15.968 31.765 14.3869 32.3454Z" fill="black"/>
<path d="M10.3689 8.58073V9.67434H11.6071H12.8453V10.9362V12.198H11.6071H10.3784L10.3499 13.3085L10.3213 14.4273L8.91166 14.4525L7.51157 14.4778V13.3337V12.198H6.22576H4.93996V10.9362V9.67434H6.22576H7.51157V8.58073V7.48713H8.94024H10.3689V8.58073Z" fill="black"/>
<path d="M32.8745 14.444C32.9126 14.4692 32.9412 16.2527 32.9412 18.3978V22.2927H31.5125H30.0838V18.3389V14.3851H31.4458C32.1983 14.3851 32.8459 14.4104 32.8745 14.444Z" fill="black"/>
<path d="M27.0341 18.3389V22.2927H25.6054H24.1768L24.1958 18.3557L24.2244 14.4272L25.6245 14.4019L27.0341 14.3767V18.3389Z" fill="black"/>
<path d="M21.2242 18.3389V22.2927H19.7955H18.3668V18.3389V14.3851H19.7955H21.2242V18.3389Z" fill="black"/>
</svg>
