<svg width="20" height="15" viewBox="0 0 20 15" fill="none" xmlns="http://www.w3.org/2000/svg">
<path d="M12.3874 0.201073L11.7141 0.0164936C11.6275 -0.0124063 11.5421 -0.00331792 11.4591 0.0436825C11.3758 0.0907209 11.3196 0.161336 11.2907 0.255412L7.24111 14.2714C7.21221 14.3655 7.22126 14.4543 7.2683 14.5374C7.31534 14.6207 7.3858 14.6768 7.48003 14.7057L8.15313 14.8903C8.23999 14.9195 8.32505 14.9103 8.40829 14.8633C8.49157 14.816 8.54769 14.7456 8.57656 14.6517L12.6262 0.635446C12.6551 0.541369 12.6461 0.452616 12.599 0.369301C12.5519 0.286023 12.4815 0.229935 12.3874 0.201073Z" fill="white"/>
<path d="M6.3187 2.93711C6.3187 2.84303 6.28246 2.75972 6.2101 2.68739L5.6672 2.14453C5.59483 2.07217 5.51155 2.03589 5.41748 2.03589C5.3234 2.03589 5.24009 2.0722 5.16776 2.14453L0.108603 7.20369C0.0361249 7.27605 0 7.35933 0 7.4534C0 7.54748 0.036239 7.63076 0.108603 7.70308L5.16772 12.7622C5.24005 12.8347 5.32321 12.8708 5.41744 12.8708C5.51167 12.8708 5.59483 12.8346 5.66716 12.7622L6.21006 12.2197C6.28242 12.1474 6.31866 12.064 6.31866 11.9699C6.31866 11.8759 6.28242 11.7926 6.21006 11.7203L1.9434 7.4534L6.2101 3.18683C6.28257 3.1145 6.3187 3.03119 6.3187 2.93711Z" fill="white"/>
<path d="M19.7588 7.20356L14.6996 2.14441C14.6272 2.07208 14.5439 2.03577 14.45 2.03577C14.3558 2.03577 14.2727 2.07208 14.2002 2.14441L13.6575 2.68723C13.5852 2.7596 13.5491 2.84276 13.5491 2.93695C13.5491 3.03114 13.5851 3.11434 13.6575 3.18667L17.9243 7.45336L13.6575 11.7203C13.5852 11.7926 13.5491 11.8759 13.5491 11.9698C13.5491 12.0641 13.5851 12.1474 13.6575 12.2197L14.2002 12.7622C14.2727 12.8347 14.3558 12.8708 14.45 12.8708C14.544 12.8708 14.6272 12.8346 14.6996 12.7622L19.7588 7.70311C19.8312 7.63079 19.8674 7.54736 19.8674 7.45328C19.8674 7.35917 19.8312 7.27589 19.7588 7.20356Z" fill="white"/>
</svg>
