<svg width="22" height="19" viewBox="0 0 22 19" fill="none" xmlns="http://www.w3.org/2000/svg">
<path d="M4.04976 0.162149C2.2898 0.634975 0.836298 2.00967 0.267157 3.75212C-0.879882 7.24577 1.69439 11.7814 7.45585 16.4133C8.88308 17.5691 10.0739 18.3747 10.3366 18.3747C10.5642 18.3747 11.2647 17.9194 12.6832 16.8424L13.1385 16.5009L12.8583 16.2119C12.7007 16.0543 12.5431 15.923 12.5081 15.923C12.4643 15.923 11.9915 16.2557 11.4398 16.6672C10.897 17.0788 10.3979 17.4115 10.3366 17.4115C10.179 17.4115 8.4015 16.0718 7.14063 14.9948C5.94106 13.9791 4.1198 12.1404 3.40181 11.2385C1.3529 8.65549 0.547349 6.3439 1.01142 4.38255C1.51927 2.24608 3.50688 0.748804 5.65211 0.888899C6.99178 0.967705 7.81484 1.4055 9.25083 2.80647C9.855 3.39312 10.1965 3.66456 10.3366 3.66456C10.4767 3.66456 10.8182 3.39312 11.4223 2.80647C11.9127 2.33364 12.5256 1.79953 12.797 1.6244C14.5832 0.433586 16.9123 0.678755 18.4446 2.21106C19.5917 3.3581 20.0295 4.96045 19.6617 6.68538C19.5917 7.01811 19.5304 7.30706 19.5304 7.31582C19.5304 7.3596 20.2484 7.70108 20.2747 7.67481C20.3972 7.54347 20.5986 6.52778 20.6424 5.84481C20.7475 4.15489 20.2309 2.78896 19.0488 1.59814C17.8843 0.424831 16.5621 -0.091774 14.9422 0.013298C13.4275 0.109613 12.4293 0.617464 10.8707 2.07972L10.3016 2.61384L9.64485 1.97465C8.55035 0.93268 8.06001 0.599951 7.00929 0.232199C6.27378 -0.0304813 4.87282 -0.065506 4.04976 0.162149Z" fill="black"/>
<path d="M16.954 9.10176C16.8752 9.18056 16.8489 9.71468 16.8489 10.9843V12.7618L16.0434 12.7705C15.5968 12.7793 14.8175 12.7793 14.3184 12.7705C13.6267 12.7618 13.364 12.788 13.2064 12.8931C12.97 13.042 12.935 13.2609 13.1101 13.506C13.2239 13.6461 13.3903 13.6636 15.0189 13.6724L16.8051 13.6812L16.8314 15.4674C16.8402 16.6057 16.8839 17.2974 16.9452 17.3762C17.0941 17.5513 17.4356 17.5075 17.5844 17.2974C17.6982 17.131 17.7245 16.7983 17.7245 15.3711V13.6374H19.502C21.3758 13.6374 21.4896 13.6111 21.4896 13.2346C21.4896 12.8143 21.2357 12.7618 19.4144 12.7618H17.7245V11.0719C17.7245 9.68841 17.6982 9.34693 17.5844 9.18932C17.4356 8.97918 17.1203 8.9354 16.954 9.10176Z" fill="black"/>
</svg>
