<svg width="1440" height="1024" viewBox="0 0 1440 1024" fill="none" xmlns="http://www.w3.org/2000/svg">
<g clip-path="url(#clip0)">
<rect width="1440" height="1024" fill="white"/>
<path d="M695.385 0H0.000185013V222.427H674.626L658.49 153.192C652.763 128.617 654.669 102.88 663.955 79.4169L695.385 0Z" fill="#F6AAC6"/>
<path d="M669.011 411.791L0.00015825 412.793V634.218L685.275 623.197L660.276 564.093C650.544 541.087 647.989 515.678 652.943 491.194L669.011 411.791Z" fill="#F6AAC6"/>
<path d="M685.882 826.588H0.000111103V1041L703.297 1033.76L677.517 977.026C666.278 952.294 663.472 924.556 669.53 898.075L685.882 826.588Z" fill="#F6AAC6"/>
<path d="M668.591 201.387H2.54381e-05V427.822H664.176L689.559 354.091C697.924 329.793 698.533 303.495 691.302 278.835L668.591 201.387Z" fill="#F6AAC6"/>
<path d="M685.275 623.197H0.000140548V831.597H684.507L706.291 768.851C715.185 743.234 715.435 715.408 707.005 689.635L685.275 623.197Z" fill="#F6AAC6"/>
</g>
<defs>
<clipPath id="clip0">
<rect width="1440" height="1024" fill="white"/>
</clipPath>
</defs>
</svg>
