<svg width="1440" height="1024" viewBox="0 0 1440 1024" fill="none" xmlns="http://www.w3.org/2000/svg">
<g clip-path="url(#clip0)">
<rect width="1440" height="1024" fill="white"/>
<path d="M649 0H1440V222H672.613L689.653 157.847C696.975 130.28 694.57 101.032 682.843 75.0322L649 0Z" fill="#F6AAC6"/>
<path d="M679 411L1440 412V633L660.5 622L687.007 567.013C699.254 541.607 702.474 512.785 696.136 485.302L679 411Z" fill="#F6AAC6"/>
<path d="M659.809 825H1440V1039L640 1031.77L667.147 979.353C681.236 952.148 684.756 920.691 677.027 891.046L659.809 825Z" fill="#F6AAC6"/>
<path d="M679.478 201H1440V427H684.5L657.441 358.035C646.819 330.964 646.05 301.021 655.268 273.44L679.478 201Z" fill="#F6AAC6"/>
<path d="M660.5 622H1440V830H661.373L638.527 772.259C627.244 743.744 626.928 712.059 637.64 683.325L660.5 622Z" fill="#F6AAC6"/>
<rect x="739" width="701" height="1024" rx="4" fill="#F6AAC6"/>
</g>
<defs>
<clipPath id="clip0">
<rect width="1440" height="1024" fill="white"/>
</clipPath>
</defs>
</svg>
