<svg width="56" height="54" viewBox="0 0 56 54" fill="none" xmlns="http://www.w3.org/2000/svg">
<path d="M55.0657 27C55.0657 41.9117 42.7535 54 27.5657 54C12.3778 54 0.0656738 41.9117 0.0656738 27C0.0656738 12.0883 12.3778 0 27.5657 0C42.7535 0 55.0657 12.0883 55.0657 27Z" fill="#D1EAF5"/>
<circle cx="27.5657" cy="19.5" r="7.5" stroke="#140018" stroke-width="2"/>
<path d="M36.2034 29.3758C37.1204 30.7213 38.0928 33.1691 39.0648 37.3915C39.0274 39.7966 37.7573 41.9096 35.6556 43.4609C33.5144 45.0413 30.5486 46 27.3464 46C20.9015 46 16.1219 42.2171 16.0662 37.3678C16.8247 33.1328 17.6905 30.6896 18.5515 29.3546C18.9761 28.6963 19.3684 28.357 19.6981 28.1844C20.016 28.018 20.3438 27.9704 20.7181 28.0167C21.557 28.1205 22.4756 28.6554 23.6411 29.3341L23.6501 29.3394C24.1957 29.6571 24.7894 29.9984 25.3854 30.2571C25.9806 30.5156 26.6476 30.7237 27.3464 30.7237C28.761 30.7237 30.0927 29.951 31.1361 29.3371C31.1796 29.3115 31.2226 29.2862 31.2652 29.2611C32.3703 28.6103 33.2106 28.1155 33.9958 28.0164C34.3536 27.9712 34.6761 28.0162 35.0014 28.1855C35.3409 28.3622 35.749 28.709 36.2034 29.3758Z" stroke="#140018" stroke-width="2"/>
</svg>
