<svg width="12" height="12" viewBox="0 0 12 12" fill="#c4c4c4" xmlns="http://www.w3.org/2000/svg">
<path d="M4.70514 0.0217018C5.06515 0.0866785 5.33802 0.192807 5.63382 0.383406C5.94797 0.584834 6.31944 1.01368 6.31944 1.17612C6.31944 1.27359 6.26441 1.34939 6.1681 1.37755C6.04657 1.41654 5.96631 1.37538 5.85625 1.21727C5.66363 0.942206 5.37012 0.701792 5.07203 0.57617C4.8175 0.467875 4.66157 0.437553 4.33596 0.437553C3.82461 0.437553 3.46919 0.569673 3.1023 0.898889C2.7721 1.19562 2.58866 1.56598 2.54509 2.02515C2.52216 2.28723 2.49923 2.30672 2.1782 2.34137C1.70354 2.39335 1.36876 2.54064 1.05461 2.83736C0.545553 3.31819 0.391919 3.96796 0.632689 4.61556C0.749635 4.93611 1.07983 5.31081 1.40086 5.48841C1.59118 5.59238 1.8503 5.67901 2.06814 5.70934C2.16215 5.72233 2.97847 5.73099 4.07914 5.73099C6.11307 5.73099 6.02823 5.73749 6.1016 5.60104C6.13141 5.54689 6.136 5.36279 6.136 4.29284C6.136 3.40699 6.14288 3.03229 6.16122 2.99331C6.19562 2.92183 6.32403 2.86552 6.40887 2.88285C6.44556 2.88934 6.4983 2.91967 6.52811 2.94999L6.58314 3.0063L6.59002 4.0481L6.59461 5.09206L8.8051 7.18214C10.7175 8.9885 11.0202 9.28306 11.0408 9.35886C11.1073 9.58845 11.0592 9.67509 10.6625 10.0433C10.4125 10.275 10.3231 10.3443 10.252 10.3638C10.1098 10.4007 10.0502 10.392 9.90577 10.3227L9.77277 10.2555L9.37149 10.6346C8.95874 11.0223 8.8716 11.0807 8.71567 11.0807C8.57351 11.0807 8.47032 11.0201 8.22496 10.7927C7.9154 10.5025 7.86266 10.3985 7.92687 10.1819C7.9475 10.1126 8.03464 10.0173 8.36713 9.69891L8.78217 9.30472L8.61249 9.14228L8.44051 8.97983L8.19974 9.20725C7.9498 9.44117 7.8512 9.49965 7.70215 9.49965C7.55998 9.49965 7.43845 9.42384 7.18621 9.1791C6.98213 8.982 6.94315 8.93218 6.91793 8.84122C6.86519 8.64195 6.92939 8.5185 7.23437 8.2326L7.44303 8.03767L6.45244 7.102L5.45955 6.16417H3.85442C2.82943 6.16417 2.17362 6.15551 2.04291 6.14035C0.501986 5.96275 -0.390009 4.39031 0.304784 3.07778C0.518037 2.67492 0.875751 2.33704 1.29767 2.13561C1.50175 2.03815 1.78609 1.95151 1.96495 1.92985L2.09107 1.91469L2.12088 1.75442C2.26534 0.935708 2.93949 0.255618 3.80168 0.0541897C4.04703 -0.00212288 4.48271 -0.0172844 4.70514 0.0217018ZM6.3997 5.94325C6.35384 5.99307 6.2667 6.05588 6.20479 6.08404L6.09472 6.13602L8.11031 8.03984L10.1259 9.94366L10.3598 9.72057L10.596 9.49965L8.58038 7.59583L6.5625 5.68984L6.52352 5.77215C6.50289 5.8198 6.44785 5.8956 6.3997 5.94325ZM7.52329 8.8932C7.61043 8.9755 7.69298 9.04481 7.70673 9.04481C7.72049 9.04481 7.8168 8.96251 7.92457 8.86071L8.11948 8.67661L7.9475 8.51417L7.77553 8.35172L7.56915 8.54666L7.36278 8.74159L7.52329 8.8932ZM8.7386 9.97614L8.37172 10.3227L8.53223 10.4743C8.61937 10.5566 8.70192 10.6259 8.71567 10.6259C8.72714 10.6259 8.90141 10.4721 9.09861 10.2859L9.46091 9.94366L9.29581 9.78771C9.20409 9.70108 9.12384 9.6296 9.11696 9.6296C9.11008 9.6296 8.94039 9.78555 8.7386 9.97614Z" fill="#c4c4c4"/>
<path d="M4.48499 0.987689C4.76933 1.02018 5.00322 1.1328 5.20272 1.33207C5.28068 1.4122 5.3724 1.52483 5.4068 1.58548C5.53979 1.81939 5.53979 1.81073 5.53979 3.49579V5.04224L5.4733 5.10505L5.4068 5.16786H3.76956C2.00163 5.16786 2.02456 5.16786 1.76544 5.04874C1.50403 4.92745 1.24951 4.64155 1.16008 4.37081C1.09817 4.18238 1.09817 3.87916 1.16008 3.69072C1.24263 3.43731 1.46735 3.17307 1.71041 3.04096C1.93513 2.9175 2.00392 2.90667 2.58177 2.89367L3.12063 2.88284L3.13439 2.37386C3.14586 1.92335 3.15273 1.84971 3.1963 1.73709C3.26739 1.55732 3.36599 1.42087 3.5265 1.28008C3.78791 1.0505 4.12728 0.946537 4.48499 0.987689ZM4.01033 1.48801C3.83836 1.56598 3.70307 1.7046 3.63657 1.86704C3.59529 1.97534 3.59071 2.03598 3.59071 2.56013C3.59071 3.03879 3.58383 3.14492 3.55402 3.19907C3.48981 3.31602 3.42561 3.32685 2.7675 3.32685C2.22405 3.32685 2.15985 3.33118 2.04519 3.37017C1.88697 3.42648 1.73793 3.54994 1.65308 3.69722C1.58888 3.80552 1.58429 3.83151 1.58429 4.03077C1.58429 4.23003 1.58888 4.25602 1.65308 4.36432C1.73793 4.5116 1.88697 4.63505 2.04519 4.69137C2.16672 4.73252 2.21946 4.73468 3.62739 4.73468H5.08348L5.0766 3.32036L5.06972 1.90819L5.00322 1.7934C4.79914 1.44469 4.38639 1.31907 4.01033 1.48801Z" fill="#c4c4c4"/>
<path d="M6.44791 1.91685C6.47543 1.92768 6.51899 1.9645 6.5488 1.99916C6.58779 2.04681 6.59696 2.07713 6.58779 2.14644C6.5511 2.39552 6.17962 2.39552 6.14293 2.14427C6.13376 2.06847 6.14064 2.04464 6.19567 1.98616C6.26676 1.91469 6.36995 1.88653 6.44791 1.91685Z" fill="#c4c4c4"/>
</svg>
