<svg width="12" height="15" viewBox="0 0 12 15" fill="none" xmlns="http://www.w3.org/2000/svg">
<path d="M3.92993 0.0181885C3.65161 0.088501 3.35864 0.331665 3.2356 0.601196C3.177 0.727173 3.17114 0.794556 3.16235 1.35999L3.15356 1.98108L1.84106 1.98987L0.528564 1.99866L0.387939 2.08655C0.29126 2.14807 0.220947 2.22424 0.156494 2.33557L0.0656738 2.4967V3.28772V4.07874L0.156494 4.23987C0.220947 4.3512 0.29126 4.42737 0.387939 4.48889C0.516846 4.56799 0.554932 4.57678 0.833252 4.58557L1.13501 4.59729V9.3053C1.13501 12.569 1.1438 14.069 1.16724 14.1891C1.22583 14.5172 1.38989 14.734 1.70044 14.8981L1.85278 14.9772H5.96899H10.0852L10.2317 14.9039C10.4075 14.819 10.6008 14.6315 10.6829 14.4703C10.7151 14.4059 10.7561 14.2711 10.7737 14.1686C10.7913 14.0455 10.803 12.3785 10.803 9.28772V4.59729L11.1047 4.58557C11.3831 4.57678 11.4211 4.56799 11.55 4.48889C11.6467 4.42737 11.717 4.3512 11.7815 4.23987L11.8723 4.07874V3.28772V2.4967L11.7815 2.33557C11.717 2.22424 11.6467 2.14807 11.55 2.08655L11.4094 1.99866L10.0969 1.98987L8.78442 1.98108L8.77563 1.35999C8.76685 0.794556 8.76099 0.727173 8.70239 0.601196C8.6145 0.407837 8.39478 0.182251 8.19849 0.088501L8.03442 0.00646973L6.02759 0.000610352C4.9231 -0.00231934 3.97974 0.00646973 3.92993 0.0181885ZM7.90259 0.870728C7.95825 0.926392 7.96118 0.967407 7.96118 1.45667V1.98401H5.96899H3.97681V1.45667C3.97681 0.967407 3.97974 0.926392 4.0354 0.870728C4.09399 0.812134 4.13208 0.812134 5.96899 0.812134C7.80591 0.812134 7.84399 0.812134 7.90259 0.870728ZM11.0374 3.28772V3.77112H5.96899H0.900635V3.28772V2.80432H5.96899H11.0374V3.28772ZM9.95337 9.34631C9.95337 13.0055 9.94458 14.11 9.91821 14.1364C9.86841 14.1862 2.06958 14.1862 2.01978 14.1364C1.99341 14.11 1.98462 13.0055 1.98462 9.34631V4.59143H5.96899H9.95337V9.34631Z" fill="#FF1A1A"/>
<path d="M3.36743 5.96542C3.3147 6.00057 3.24731 6.06796 3.21509 6.12069C3.15649 6.21444 3.15649 6.27596 3.15649 9.45468C3.15649 12.5338 3.15942 12.6978 3.20923 12.7916C3.36743 13.0875 3.80396 13.0582 3.93579 12.7447C3.97095 12.6656 3.97681 12.0943 3.97681 9.44882C3.97681 6.45761 3.97388 6.24081 3.92407 6.14706C3.8186 5.93612 3.55493 5.85116 3.36743 5.96542Z" fill="#FF1A1A"/>
<path d="M5.79329 5.95959C5.73763 5.98889 5.66145 6.05627 5.6263 6.11194L5.55892 6.21155V9.44592C5.55892 12.9557 5.55013 12.7535 5.72005 12.9117C5.7845 12.9733 5.82845 12.985 5.96907 12.985C6.1097 12.985 6.15364 12.9733 6.21809 12.9117C6.38802 12.7535 6.37923 12.9557 6.37923 9.44885C6.37923 6.29651 6.3763 6.21448 6.32063 6.12366C6.20637 5.93323 5.97786 5.86292 5.79329 5.95959Z" fill="#FF1A1A"/>
<path d="M8.19851 5.95965C8.14285 5.98895 8.0696 6.05047 8.03738 6.09441C7.97585 6.17645 7.97585 6.19402 7.96706 9.41961C7.9612 12.4636 7.96413 12.6686 8.01101 12.7653C8.16042 13.0583 8.57644 13.0759 8.72878 12.7917C8.77859 12.6979 8.78152 12.5339 8.78152 9.45476C8.78152 6.29656 8.77859 6.21453 8.72292 6.12371C8.60867 5.93328 8.38015 5.86297 8.19851 5.95965Z" fill="#FF1A1A"/>
</svg>
