<svg width="12" height="13" viewBox="0 0 12 13" fill="none" xmlns="http://www.w3.org/2000/svg">
<path d="M3.29341 0.0355163C2.7272 0.165008 2.27271 0.581415 2.09751 1.12731C2.04165 1.29743 2.03149 1.38122 2.03149 1.61227C2.03149 2.07946 2.17876 2.43239 2.5063 2.75739C3.02173 3.27028 3.81899 3.36931 4.44868 3.00368C4.80161 2.79802 5.1063 2.39177 5.19771 2.00329C5.24087 1.81032 5.24595 1.45231 5.20786 1.26442C5.0936 0.73122 4.6772 0.271649 4.13892 0.0862975C3.90532 0.00758648 3.51939 -0.0178041 3.29341 0.0355163ZM3.9561 0.56618C4.76099 0.817548 4.99458 1.8611 4.37251 2.4197C3.93833 2.81071 3.3061 2.80563 2.88716 2.40954C2.64849 2.18356 2.54185 1.9322 2.54185 1.60466C2.54438 0.875946 3.2604 0.35036 3.9561 0.56618Z" fill="#C4C4C4"/>
<path d="M2.19131 3.61563C2.08721 3.65372 0.167676 5.44376 0.137207 5.53263C0.124512 5.56817 0.124512 5.63419 0.137207 5.67735C0.147363 5.72306 0.47998 6.16993 0.888769 6.69298L1.62256 7.62481L1.63779 9.23966C1.64795 10.1283 1.65557 11.1617 1.65811 11.54C1.65811 12.3043 1.66826 12.3729 1.80537 12.4516C1.91455 12.515 2.04658 12.4846 2.12275 12.383C2.18623 12.2967 2.18369 12.5455 2.15576 9.65099C2.14307 8.47286 2.12529 7.48263 2.1126 7.44962C2.09482 7.40645 0.919238 5.88302 0.75166 5.68497C0.721191 5.65196 0.815137 5.55294 1.51084 4.90802C2.61533 3.8797 2.51885 3.98126 2.51885 3.84923C2.51885 3.66388 2.3665 3.5547 2.19131 3.61563Z" fill="#C4C4C4"/>
<path d="M3.56743 3.59784C3.53696 3.60292 3.4811 3.64355 3.44556 3.68417L3.38208 3.76288V5.01464V6.2664L3.46079 6.34511C3.58774 6.47206 3.77817 6.44159 3.86196 6.27909C3.88228 6.24101 3.88989 5.85507 3.88989 5.01464C3.88989 3.67148 3.89243 3.68671 3.72485 3.61562C3.67661 3.5953 3.63345 3.58261 3.63091 3.58261C3.62583 3.58515 3.5979 3.59276 3.56743 3.59784Z" fill="#C4C4C4"/>
<path d="M4.53227 3.60039C4.40024 3.6207 4.30376 3.83398 4.37231 3.96094C4.39009 3.99648 4.93852 4.51445 5.87798 5.38281C5.92114 5.42344 5.90591 5.43105 5.61392 5.56055C5.27368 5.70781 5.15942 5.79414 5.07817 5.94902C5.01216 6.07852 5.00962 6.29434 5.07056 6.44668L5.11626 6.55586L4.92583 6.73867C4.82173 6.8377 4.68716 6.97988 4.62368 7.05352L4.51196 7.18809L4.4104 7.14492C4.18696 7.05098 3.92036 7.10684 3.74263 7.28965C3.64106 7.39375 3.40493 7.97773 3.38716 8.16562C3.36684 8.41445 3.49126 8.62012 3.73501 8.73438L3.8645 8.79277V9.13809C3.8645 9.32852 3.87212 9.52402 3.87974 9.57227C3.89497 9.66113 3.89243 9.66367 3.76294 9.72461C3.52934 9.83379 3.38716 10.0674 3.41509 10.2984C3.43286 10.4609 3.67661 11.0221 3.78071 11.1465C3.95083 11.3445 4.1895 11.4004 4.45356 11.3064L4.5729 11.2633L4.79634 11.4943C4.91821 11.6213 5.05786 11.7533 5.1061 11.7889L5.19497 11.8523L5.15181 11.9844C5.12895 12.058 5.10864 12.1646 5.10864 12.223C5.10864 12.3627 5.2102 12.5709 5.31431 12.6521C5.42856 12.7385 6.09634 13 6.20298 13C6.43403 13 6.66509 12.8426 6.76157 12.6217L6.80981 12.5049H7.24907L7.69087 12.5023L7.73403 12.6115C7.82036 12.8172 8.04126 12.9568 8.28247 12.9543C8.39419 12.9543 8.48814 12.9264 8.74966 12.8121C9.14067 12.642 9.23462 12.576 9.31333 12.4059C9.38696 12.2484 9.3895 12.1037 9.32603 11.9336L9.27778 11.8041L9.52407 11.5578C9.66118 11.4232 9.79575 11.2811 9.82368 11.243L9.87446 11.1744L10.0065 11.2227C10.1766 11.2887 10.2985 11.2861 10.4534 11.2125C10.6463 11.1211 10.7073 11.0373 10.8622 10.6488C11.0247 10.2451 11.045 10.0902 10.9536 9.90996C10.8901 9.78555 10.7504 9.65859 10.6159 9.60527L10.5143 9.56465L10.5295 9.34629C10.5372 9.22695 10.5346 9.03398 10.5219 8.91719L10.5016 8.70391L10.6159 8.64551C10.8545 8.52617 10.9713 8.3459 10.9739 8.10469C10.9739 7.97012 10.8723 7.69336 10.7022 7.35312C10.5499 7.05352 10.2452 6.93418 9.93286 7.05352L9.8186 7.09922L9.57739 6.85293C9.44536 6.71836 9.30317 6.58379 9.26255 6.55586L9.19146 6.5L9.23208 6.39844C9.2854 6.26133 9.28286 6.03027 9.22446 5.90332C9.15083 5.74082 9.02896 5.65449 8.66841 5.51484C8.252 5.35234 8.19614 5.34219 8.01841 5.39297C7.84321 5.44375 7.7188 5.55039 7.64009 5.71797L7.57915 5.84492L7.14243 5.85C6.90122 5.85254 6.70063 5.84746 6.69302 5.8373C6.68794 5.82715 6.70063 5.77891 6.72349 5.72812C6.80728 5.55801 6.79204 5.54023 5.88306 4.68965C5.42095 4.26055 4.97407 3.84414 4.88774 3.76797C4.73032 3.62832 4.63638 3.58262 4.53227 3.60039ZM7.51567 7.83301C7.76704 7.89395 7.97017 8.01074 8.17583 8.21641C8.60239 8.64297 8.70142 9.23965 8.43735 9.78555C8.21392 10.2477 7.79751 10.5244 7.27954 10.5549C6.85552 10.5803 6.52036 10.4533 6.22329 10.1588C5.94653 9.88203 5.81958 9.57227 5.81958 9.17617C5.81958 8.77246 5.96177 8.44492 6.2563 8.16816C6.59399 7.85078 7.06118 7.72637 7.51567 7.83301Z" fill="#C4C4C4"/>
</svg>
