<svg width="10" height="10" viewBox="0 0 10 10" fill="none" xmlns="http://www.w3.org/2000/svg">
<path d="M4.67374 0.0192184C4.36242 0.0598259 3.99308 0.183583 3.71269 0.344081C2.40357 1.09243 1.98782 2.78249 2.80385 4.04907C2.9276 4.24244 3.13258 4.48028 3.29114 4.61177C3.36462 4.67365 3.4207 4.72973 3.41103 4.73553C3.4033 4.74133 3.28921 4.78968 3.15772 4.83995C2.54666 5.07973 2.01489 5.422 1.53533 5.88609C0.918481 6.47974 0.5008 7.143 0.233948 7.94742C0.0231741 8.58361 0.0135055 8.88914 0.187539 9.24687C0.301628 9.47892 0.522071 9.69163 0.757983 9.79605C0.990028 9.90047 0.959089 9.90047 3.19059 9.89467L5.25579 9.88886L5.33507 9.83665C5.45496 9.75737 5.50524 9.66262 5.50524 9.51179C5.50524 9.36096 5.45496 9.26621 5.33507 9.18693L5.25579 9.13472L3.18672 9.12505C1.30329 9.11538 1.10992 9.11151 1.05771 9.08251C0.92815 9.01289 0.835332 8.864 0.835332 8.73057C0.835332 8.64356 0.932017 8.27228 1.00937 8.06151C1.09445 7.8256 1.31682 7.38278 1.44832 7.18747C1.88727 6.53195 2.46158 6.02725 3.14418 5.69465C3.72429 5.4104 4.22899 5.28857 4.94446 5.25763C5.16877 5.24796 5.42015 5.22669 5.50524 5.21122C6.30773 5.05459 6.99999 4.52863 7.3674 3.79575C7.44861 3.63332 7.55303 3.32779 7.59558 3.12089C7.64392 2.88497 7.64585 2.38028 7.59751 2.1405C7.42541 1.27226 6.84723 0.558722 6.03894 0.208721C5.62513 0.0308199 5.1301 -0.0368595 4.67374 0.0192184ZM5.45883 0.827508C5.80496 0.916458 6.07568 1.07309 6.32706 1.33027C6.57651 1.58165 6.73701 1.86784 6.82403 2.21398C6.87044 2.39768 6.87044 2.8579 6.82403 3.0416C6.679 3.61785 6.26905 4.10901 5.74502 4.33139C4.68148 4.78387 3.48451 4.17669 3.20026 3.0416C3.15385 2.8579 3.15385 2.39768 3.20026 2.21398C3.28921 1.86204 3.44777 1.57972 3.70495 1.3206C4.01048 1.01701 4.29474 0.873917 4.7801 0.783032C4.89419 0.761762 5.31573 0.788834 5.45883 0.827508Z" fill="white"/>
<path d="M6.54358 6.05238C6.45269 6.07945 6.3328 6.20514 6.30573 6.30569C6.26126 6.47779 6.32894 6.65763 6.4759 6.74851L6.54938 6.79492H8.12535H9.70132L9.77481 6.74851C9.81541 6.72531 9.86956 6.6731 9.8947 6.63442C9.9353 6.57448 9.94304 6.54161 9.94304 6.41785C9.94304 6.29409 9.9353 6.26122 9.8947 6.20127C9.86956 6.1626 9.81541 6.11039 9.77481 6.08718L9.70132 6.04078L8.15436 6.03691C7.21264 6.03497 6.58225 6.04078 6.54358 6.05238Z" fill="white"/>
<path d="M6.54358 7.59934C6.45269 7.62642 6.3328 7.75211 6.30573 7.85266C6.26126 8.02476 6.32894 8.2046 6.4759 8.29548L6.54938 8.34189H8.12535H9.70132L9.77481 8.29548C9.81541 8.27227 9.86956 8.22006 9.8947 8.18139C9.9353 8.12145 9.94304 8.08857 9.94304 7.96482C9.94304 7.84106 9.9353 7.80819 9.8947 7.74824C9.86956 7.70957 9.81541 7.65736 9.77481 7.63415L9.70132 7.58774L8.15436 7.58388C7.21264 7.58194 6.58225 7.58774 6.54358 7.59934Z" fill="white"/>
<path d="M6.54358 9.14631C6.45269 9.17338 6.3328 9.29907 6.30573 9.39963C6.26126 9.57173 6.32894 9.75156 6.4759 9.84245L6.54938 9.88885H8.12535H9.70132L9.77481 9.84245C9.81541 9.81924 9.86956 9.76703 9.8947 9.72836C9.9353 9.66841 9.94304 9.63554 9.94304 9.51178C9.94304 9.38802 9.9353 9.35515 9.8947 9.29521C9.86956 9.25653 9.81541 9.20432 9.77481 9.18112L9.70132 9.13471L8.15436 9.13084C7.21264 9.12891 6.58225 9.13471 6.54358 9.14631Z" fill="white"/>
</svg>
