<?xml version="1.0" standalone="no"?>
<!DOCTYPE svg PUBLIC "-//W3C//DTD SVG 20010904//EN"
 "http://www.w3.org/TR/2001/REC-SVG-20010904/DTD/svg10.dtd">
<svg version="1.0" xmlns="http://www.w3.org/2000/svg"
 width="50px" height="50px" viewBox="0 0 512.000000 512.000000"
 preserveAspectRatio="xMidYMid meet">

<g transform="translate(0.000000,512.000000) scale(0.100000,-0.100000)"
fill="#000000" stroke="none">
<path d="M2060 4787 c-27 -8 -256 -231 -1024 -996 -1050 -1048 -1036 -1032
-1036 -1126 1 -91 -13 -76 1018 -1108 670 -670 990 -984 1018 -998 108 -52
230 -11 287 96 22 39 22 48 25 610 2 432 6 571 15 577 7 4 86 8 177 8 433 0
830 -122 1215 -374 319 -209 612 -508 849 -868 49 -73 105 -157 125 -187 46
-70 95 -96 176 -96 76 1 137 32 180 93 29 42 30 49 34 163 10 356 -74 877
-199 1234 -292 828 -950 1482 -1780 1767 -190 65 -494 127 -702 143 l-87 7 -3
456 c-3 511 0 485 -77 555 -59 53 -131 68 -211 44z m-118 -1362 c43 -79 113
-115 220 -115 691 -1 1301 -247 1771 -714 331 -328 549 -720 663 -1191 13 -55
24 -103 24 -106 0 -4 -62 55 -137 130 -475 471 -1014 747 -1623 833 -212 29
-642 11 -793 -34 -54 -16 -119 -81 -135 -134 -9 -30 -12 -153 -12 -435 l0
-394 -702 702 -703 703 700 700 700 700 5 -307 c4 -262 7 -312 22 -338z"/>
</g>
</svg>
