<svg width="25" height="27" viewBox="0 0 25 27" fill="none" xmlns="http://www.w3.org/2000/svg">
<path d="M13.9406 1.76228L15.6848 7.77623C15.8845 8.4648 16.3703 9.0345 17.0186 9.34058L22.9557 12.1436C24.1019 12.6847 24.1019 14.3153 22.9557 14.8564L17.0186 17.6594C16.3703 17.9655 15.8845 18.5352 15.6848 19.2238L13.9406 25.2377C13.5222 26.6806 11.4778 26.6806 11.0594 25.2377L9.31516 19.2238C9.11546 18.5352 8.62974 17.9655 7.98142 17.6594L2.04429 14.8564C0.898133 14.3153 0.898133 12.6847 2.04428 12.1436L7.98142 9.34058C8.62974 9.0345 9.11546 8.4648 9.31516 7.77623L11.0594 1.76227C11.4778 0.319373 13.5222 0.319371 13.9406 1.76228Z" fill="white" stroke="#FEE521"/>
</svg>
