<svg width="11" height="13" viewBox="0 0 11 13" fill="none" xmlns="http://www.w3.org/2000/svg">
<circle cx="5.06567" cy="3" r="2.5" stroke="white"/>
<path d="M8.45684 6.94167C8.80142 7.38408 9.18042 8.20628 9.56472 9.65967C9.5412 10.4062 9.08565 11.0948 8.26791 11.6229C7.42816 12.1653 6.25386 12.5 4.97795 12.5C3.70277 12.5 2.57688 12.1657 1.78496 11.629C1.01289 11.1058 0.583397 10.4135 0.566211 9.64669C0.866768 8.18624 1.20481 7.3673 1.52633 6.93109C1.68345 6.71793 1.82494 6.61236 1.94136 6.55904C2.05549 6.50677 2.1775 6.48995 2.32195 6.50559C2.64659 6.54075 3.00348 6.72223 3.47375 6.96184C3.47932 6.96467 3.48492 6.96753 3.49053 6.97039C3.90086 7.17951 4.43809 7.4533 4.97795 7.4533C5.55702 7.4533 6.10197 7.17602 6.51987 6.96088C6.53538 6.95289 6.55074 6.94498 6.56597 6.93713C7.0129 6.7069 7.33877 6.53903 7.6425 6.50548C7.78012 6.49028 7.90007 6.50608 8.01739 6.5595C8.13829 6.61455 8.28705 6.72367 8.45684 6.94167Z" stroke="white"/>
</svg>
