<svg width="25" height="27" viewBox="0 0 25 27" fill="none" xmlns="http://www.w3.org/2000/svg">
<path d="M10.5792 1.623C11.1371 -0.300872 13.8629 -0.300868 14.4208 1.623L16.165 7.63696C16.3248 8.18781 16.7134 8.64357 17.232 8.88844L23.1692 11.6914C24.6974 12.4129 24.6974 14.5871 23.1692 15.3086L17.232 18.1116C16.7134 18.3564 16.3248 18.8122 16.165 19.363L14.4208 25.377C13.8629 27.3009 11.1371 27.3009 10.5792 25.377L8.83495 19.363C8.67519 18.8122 8.28662 18.3564 7.76796 18.1116L1.83082 15.3086C0.302621 14.5871 0.302619 12.4129 1.83082 11.6914L7.76796 8.88844C8.28662 8.64357 8.67519 8.18781 8.83495 7.63696L10.5792 1.623Z" fill="#FEE521"/>
</svg>
