<svg width="30" height="27" viewBox="0 0 30 27" fill="none" xmlns="http://www.w3.org/2000/svg">
<path d="M20.3077 7.3499C18.5886 7.5662 17.2361 8.3783 16.5206 9.623C16.0058 10.5262 15.9011 11.0764 15.9011 12.9473V14.2717H14.422C13.6018 14.2717 12.8906 14.2869 12.8339 14.3058C12.7728 14.3286 12.6812 14.3817 12.6332 14.4273C12.5416 14.5107 12.5416 14.5373 12.5416 16.2602C12.5416 17.8616 12.5503 18.0172 12.6201 18.0893C12.7684 18.2525 12.8252 18.2562 14.3915 18.2562H15.9011V22.3547V26.4531L16.0276 26.5745L16.1541 26.6998L18.1873 26.7111C19.9804 26.7187 20.2379 26.7149 20.3557 26.6618C20.6262 26.5404 20.6131 26.7301 20.6131 22.2977V18.2562H22.3583C23.6148 18.2562 24.1296 18.2449 24.2125 18.2107C24.4525 18.1158 24.4525 18.1007 24.4525 16.2488V14.5373L24.326 14.4159L24.1994 14.2906L22.4019 14.2793L20.6087 14.2679L20.6218 13.0421L20.6349 11.8202L20.7658 11.5963C20.9097 11.3534 21.1497 11.1903 21.4726 11.1144C21.5642 11.0916 22.2099 11.0688 22.9036 11.0612C23.6017 11.0499 24.2169 11.0347 24.2692 11.0233C24.326 11.0119 24.4219 10.9588 24.4787 10.9057L24.5834 10.807V9.16762C24.5834 7.55861 24.5834 7.52825 24.4917 7.44477C24.4438 7.39923 24.3521 7.3461 24.2911 7.32333C24.1165 7.26641 20.7963 7.28918 20.3077 7.3499Z" fill="white"/>
<rect x="1.5" y="1.5" width="27" height="24" rx="8.5" stroke="white" stroke-width="3"/>
</svg>
