<svg width="31" height="16" viewBox="0 0 31 16" fill="none" xmlns="http://www.w3.org/2000/svg">
<path d="M9.88455 14.7172C9.21366 14.6036 8.6527 14.1973 8.32673 13.5909C8.18838 13.331 8.11258 13.0692 8.08415 12.7419C8.05951 12.4435 8.05951 5.30468 8.08415 5.00627C8.13153 4.45951 8.33621 4.01478 8.71524 3.63358C9.03552 3.31014 9.43539 3.10607 9.9016 3.02906C10.1082 2.9944 13.2579 2.98863 13.347 3.02328C13.4683 3.06949 13.5611 3.20618 13.5611 3.3371C13.5611 3.46994 13.4948 3.57197 13.3678 3.63936C13.2996 3.67401 13.2333 3.67594 11.6906 3.67594C10.1897 3.67594 10.0722 3.67979 9.91297 3.71252C9.38044 3.8261 8.95971 4.2227 8.78915 4.76947L8.73798 4.93696V8.87407V12.8112L8.78915 12.9787C8.95971 13.5254 9.38044 13.922 9.91297 14.0356C10.0722 14.0683 10.1916 14.0722 11.7134 14.0722C13.2579 14.0722 13.347 14.0741 13.4209 14.1088C13.6654 14.2224 13.6767 14.5651 13.438 14.7017L13.3621 14.746L11.6944 14.7441C10.4417 14.7422 9.99067 14.7364 9.88455 14.7172Z" fill="#FBE8FF"/>
<path d="M16.2711 11.3346C16.0702 11.2768 15.9697 11.0631 16.0512 10.8706C16.0664 10.8359 16.4189 10.4624 16.8567 10.0196C17.285 9.58644 17.6356 9.22449 17.6356 9.21679C17.6356 9.20717 16.1081 9.20139 14.2414 9.20139C10.8528 9.20139 10.8471 9.20139 10.777 9.16096C10.561 9.03967 10.5515 8.72971 10.7581 8.59109L10.8396 8.53719L14.2414 8.53141L17.6432 8.52756L16.8548 7.72281C16.4208 7.28193 16.055 6.89496 16.0455 6.86608C16.0171 6.78907 16.019 6.64853 16.0512 6.58692C16.0872 6.51569 16.1555 6.45601 16.237 6.41943C16.3279 6.38285 16.3905 6.38285 16.4757 6.42328C16.561 6.46178 18.6969 8.62575 18.7442 8.72008C18.7859 8.80094 18.7859 8.94534 18.748 9.02042C18.731 9.05122 18.2212 9.58066 17.6128 10.1967C16.7884 11.0323 16.4928 11.3191 16.4511 11.3288C16.4208 11.3365 16.381 11.3442 16.3658 11.348C16.3507 11.3519 16.3071 11.3461 16.2711 11.3346Z" fill="#FBE8FF"/>
</svg>
