<svg width="32" height="29" viewBox="0 0 32 29" fill="none" xmlns="http://www.w3.org/2000/svg">
<path d="M17.6797 0.692735C19.7294 0.937227 21.7745 1.57793 23.4915 2.52013C25.7156 3.73802 27.5277 5.39832 28.859 7.44146C29.9016 9.03615 30.5913 10.8908 30.8707 12.8417L30.8708 12.8421C30.9202 13.1907 30.9433 13.872 30.9433 14.5365C30.9433 15.201 30.9202 15.8822 30.8708 16.2309L30.8707 16.2312C30.5913 18.1821 29.9016 20.0367 28.8592 21.6313C26.6601 25.0146 23.009 27.4183 18.9215 28.1851L18.9213 28.1851C17.7303 28.4078 17.125 28.457 15.7807 28.457C13.9544 28.457 12.6627 28.2775 11.0371 27.7826C8.98085 27.1632 7.08698 26.1519 5.5638 24.8484C2.8114 22.5046 1.17875 19.63 0.690768 16.2313L0.690711 16.2309C0.641231 15.8822 0.618164 15.201 0.618164 14.5365C0.618164 13.872 0.641231 13.1907 0.69071 12.8421L0.690756 12.8417C0.970161 10.8908 1.65995 9.03603 2.70253 7.4413C4.0339 5.3982 5.84601 3.73793 8.07008 2.52007L8.07019 2.52001C9.82158 1.56214 11.9851 0.888199 13.9458 0.692098L13.9487 0.691839C14.1629 0.672962 14.3937 0.649111 14.552 0.632745C14.6174 0.625992 14.6704 0.620512 14.7048 0.617183M17.6797 0.692735C17.4077 0.658817 16.7558 0.630653 16.1387 0.615347C15.5261 0.600149 14.9064 0.596496 14.7048 0.617183M17.6797 0.692735C17.6794 0.692701 17.6791 0.692667 17.6788 0.692632L17.6492 0.940874M17.6797 0.692735C17.6798 0.692758 17.68 0.692781 17.6802 0.692804L17.6492 0.940874M14.7048 0.617183C14.7045 0.61721 14.7043 0.617239 14.704 0.617265L14.7297 0.865938M14.7048 0.617183C14.7051 0.617153 14.7054 0.617124 14.7057 0.617094L14.7297 0.865938M14.7297 0.865938C14.6977 0.869026 14.6463 0.87434 14.582 0.880981C14.4235 0.897367 14.1867 0.921831 13.9707 0.940874H17.6492M14.7297 0.865938C15.0917 0.82847 17.1354 0.876644 17.6492 0.940874M21.4306 3.8992L21.4295 3.8987C20.2017 3.34646 19.1902 3.05286 17.8161 2.84201C17.4886 2.79331 16.8771 2.74956 16.2619 2.72486C15.6451 2.70011 15.0492 2.69553 14.7511 2.7208C14.2012 2.76807 13.2554 2.9109 12.6899 3.0418L12.6876 3.04231C10.1018 3.61523 7.60254 5.03548 5.91084 6.89016L5.91066 6.89036C3.66075 9.35174 2.57841 12.4832 2.89193 15.6086C3.2 18.6577 4.87381 21.6097 7.40817 23.5554L7.40822 23.5554C10.0965 25.6205 13.5262 26.6199 16.9566 26.3307C20.3024 26.0466 23.5299 24.5042 25.6508 22.1827L25.651 22.1824C26.6129 21.1327 27.535 19.666 27.9839 18.4888C29.5022 14.4965 28.6317 10.1475 25.6509 6.89047L25.6508 6.89032C24.5312 5.66503 23.0771 4.6302 21.4306 3.8992Z" fill="white" stroke="white" stroke-width="0.5"/>
<path d="M22.3366 22.1104L22.3366 22.1104C22.6569 21.8817 23.1999 21.3936 23.6785 20.9287C23.9197 20.6945 24.1488 20.4619 24.3301 20.2654C24.5018 20.0792 24.6538 19.9011 24.7172 19.7837C24.9841 19.2997 25.0691 18.7653 24.9714 18.2278L24.9712 18.2267C24.9047 17.8697 24.8122 17.6008 24.5673 17.2762C24.3351 16.9684 23.9655 16.6105 23.3648 16.0599C22.4735 15.2374 22.1984 15.014 21.84 14.8497L21.8372 14.8484L21.8372 14.8485C21.2505 14.5882 20.6912 14.5164 20.0728 14.6332C19.7592 14.6907 19.4962 14.7765 19.2216 14.9346C18.952 15.0898 18.6804 15.3094 18.3435 15.621C18.3434 15.6211 18.3432 15.6213 18.3431 15.6214L17.9698 15.9636L16.0834 14.2343L14.2253 12.531L14.6268 12.1485C14.6269 12.1484 14.6269 12.1484 14.627 12.1483C14.9627 11.8297 15.2009 11.5737 15.3658 11.3198C15.5352 11.0589 15.6219 10.8088 15.6705 10.5102C15.7622 9.99123 15.6685 9.45398 15.4056 8.95989C15.2293 8.62442 14.9806 8.36854 14.0868 7.54923C13.2518 6.77849 12.9043 6.49334 12.5852 6.34972C11.9302 6.04415 11.2536 5.97201 10.5938 6.13627L22.3366 22.1104ZM22.3366 22.1104L22.3348 22.1116M22.3366 22.1104L22.3348 22.1116M22.3348 22.1116C21.9104 22.4091 21.356 22.6568 20.8028 22.792C20.4994 22.8667 19.9725 22.8996 19.4525 22.8989C18.929 22.8982 18.374 22.8634 18.008 22.789M22.3348 22.1116L18.008 22.789M11.615 12.0696L11.615 12.0696C11.5361 12.2103 11.5041 12.3787 11.505 12.5366C11.5059 12.6957 11.5404 12.8656 11.6169 13.0134L11.615 12.0696ZM11.615 12.0696L11.617 12.0662M11.615 12.0696L11.617 12.0662M11.617 12.0662C11.6352 12.0349 11.6601 12.0047 11.6773 11.9846C11.6979 11.9605 11.7231 11.9328 11.7512 11.9029C11.8078 11.843 11.8821 11.768 11.9683 11.6835C12.1411 11.5142 12.3669 11.3019 12.6053 11.086L12.6162 11.0761C12.932 10.7879 13.1524 10.5868 13.2955 10.4219C13.4422 10.253 13.4633 10.1705 13.4612 10.1215C13.4589 10.0658 13.4239 9.9709 13.2576 9.785C13.0985 9.60702 12.8595 9.38794 12.5228 9.07929L12.506 9.06389C12.5058 9.06373 12.5056 9.06357 12.5054 9.06341C12.245 8.82732 11.991 8.60647 11.7923 8.44138C11.6926 8.35859 11.6085 8.2912 11.5452 8.24335C11.5134 8.2193 11.4889 8.20176 11.4715 8.19018C11.4678 8.18769 11.4647 8.18573 11.4624 8.18422C11.3732 8.15554 11.327 8.14745 11.2894 8.14882C11.2554 8.15005 11.2068 8.16 11.1188 8.21203C10.9239 8.32724 10.6324 8.5868 10.0475 9.13117C9.50162 9.63971 9.24366 9.89875 9.10534 10.1322C8.9787 10.3459 8.94714 10.5475 8.92388 10.99L8.92384 10.9909C8.85552 12.2108 9.46319 13.7457 10.5648 15.2648C11.661 16.7765 13.2228 18.2389 15.0041 19.3108L15.0042 19.3109C16.1352 19.9924 17.2716 20.4543 18.2781 20.6723C19.288 20.8911 20.137 20.8582 20.7205 20.5906C20.7225 20.5893 20.7289 20.5852 20.7411 20.5767C20.7607 20.5629 20.7872 20.543 20.8207 20.5169C20.8874 20.4649 20.9752 20.393 21.0784 20.306C21.2844 20.1324 21.5464 19.9029 21.8132 19.661L21.8132 19.6609C22.3493 19.1749 22.6005 18.9355 22.7114 18.7756C22.7602 18.7053 22.7652 18.6727 22.7661 18.6568C22.7674 18.6346 22.7629 18.6015 22.736 18.5221C22.7342 18.5193 22.7313 18.5149 22.7268 18.5087C22.7138 18.4904 22.694 18.4652 22.6665 18.433C22.6116 18.3687 22.5348 18.2866 22.441 18.1914C22.254 18.0015 22.0087 17.7695 21.7574 17.5428C21.5062 17.3161 21.2519 17.0975 21.0473 16.9339C20.9446 16.8519 20.8573 16.7861 20.7907 16.7406C20.7572 16.7177 20.7322 16.7022 20.7152 16.6929C20.7136 16.692 20.7121 16.6912 20.7108 16.6905C20.6355 16.6786 20.5923 16.677 20.5554 16.6822C20.5186 16.6874 20.4708 16.7019 20.3929 16.749C20.222 16.8521 19.9728 17.0673 19.48 17.5109L19.4795 17.5113M11.617 12.0662L19.4795 17.5113M19.4795 17.5113C18.9842 17.9549 18.6821 18.2187 18.4402 18.3522C18.3092 18.4245 18.1867 18.4646 18.0538 18.4759C17.9278 18.4867 17.8051 18.4699 17.6834 18.4495M19.4795 17.5113L14.5488 15.8021M8.54591 7.54916C8.04963 8.00411 7.76442 8.27063 7.57646 8.47669C7.37942 8.69271 7.28632 8.84556 7.16931 9.06569C7.00066 9.37775 6.88506 9.64091 6.80759 9.92573C6.7303 10.2098 6.69385 10.5049 6.67295 10.8772L8.54591 7.54916ZM8.54591 7.54916C9.64977 6.53192 9.97973 6.28771 10.5932 6.13643L8.54591 7.54916ZM18.008 22.789C15.1601 22.2223 12.2704 20.3907 10.1262 18.1468C7.98862 15.9098 6.54168 13.2087 6.67295 10.8772L18.008 22.789ZM14.5488 15.8021C13.7802 15.1002 13.0712 14.4423 12.5482 13.948C12.2867 13.701 12.071 13.4941 11.9171 13.3427C11.8404 13.2673 11.7778 13.2043 11.7322 13.1565C11.7096 13.1328 11.6894 13.1111 11.6733 13.0925L11.6721 13.0912C11.6623 13.0798 11.6353 13.0488 11.6169 13.0135L14.5488 15.8021ZM14.5488 15.8021C15.768 16.9197 16.4749 17.5611 16.9012 17.927C17.1136 18.1092 17.263 18.2289 17.3748 18.3059C17.4846 18.3816 17.5806 18.4324 17.6834 18.4495M17.6834 18.4495L17.7245 18.2029M17.6834 18.4495C17.6834 18.4495 17.6833 18.4495 17.6832 18.4495L17.7245 18.2029M17.7245 18.2029C18.2033 18.2832 18.3026 18.2297 19.3127 17.3251L14.7175 15.6176C17.1582 17.855 17.5319 18.1708 17.7245 18.2029Z" fill="white" stroke="white" stroke-width="0.5"/>
</svg>
